<svg width="49" height="49" viewBox="0 0 49 49" fill="none" xmlns="http://www.w3.org/2000/svg">
<path d="M34.5 4.9209H14.5C8.97715 4.9209 4.5 9.39805 4.5 14.9209V34.9209C4.5 40.4437 8.97715 44.9209 14.5 44.9209H34.5C40.0228 44.9209 44.5 40.4437 44.5 34.9209V14.9209C44.5 9.39805 40.0228 4.9209 34.5 4.9209Z" stroke="#00505F" stroke-width="4" stroke-linecap="round" stroke-linejoin="round"/>
<path d="M32.4999 23.6605C32.7467 25.325 32.4624 27.025 31.6874 28.5186C30.9124 30.0122 29.6862 31.2233 28.1832 31.9799C26.6801 32.7364 24.9768 32.9997 23.3155 32.7324C21.6542 32.4651 20.1194 31.6807 18.9296 30.4908C17.7397 29.301 16.9554 27.7663 16.688 26.105C16.4207 24.4436 16.684 22.7403 17.4406 21.2373C18.1971 19.7342 19.4083 18.508 20.9019 17.733C22.3955 16.958 24.0954 16.6737 25.7599 16.9205C27.4577 17.1723 29.0296 17.9635 30.2433 19.1771C31.457 20.3908 32.2481 21.9627 32.4999 23.6605Z" stroke="#00505F" stroke-width="4" stroke-linecap="round" stroke-linejoin="round"/>
<path d="M35.5 13.9209H35.52" stroke="#00505F" stroke-width="4" stroke-linecap="round" stroke-linejoin="round"/>
</svg>
