<svg width="126" height="125" viewBox="0 0 126 125" fill="none" xmlns="http://www.w3.org/2000/svg">
<path d="M99.4583 57.2916H26.5417C20.7887 57.2916 16.125 61.9553 16.125 67.7083V104.167C16.125 109.92 20.7887 114.583 26.5417 114.583H99.4583C105.211 114.583 109.875 109.92 109.875 104.167V67.7083C109.875 61.9553 105.211 57.2916 99.4583 57.2916Z" stroke="white" stroke-width="10" stroke-linecap="round" stroke-linejoin="round"/>
<path d="M36.9583 57.2916V36.4583C36.9583 29.5516 39.702 22.9278 44.5858 18.0441C49.4695 13.1603 56.0933 10.4166 63 10.4166C69.9067 10.4166 76.5305 13.1603 81.4142 18.0441C86.298 22.9278 89.0417 29.5516 89.0417 36.4583V57.2916" stroke="white" stroke-width="10" stroke-linecap="round" stroke-linejoin="round"/>
</svg>
