<svg width="49" height="49" viewBox="0 0 49 49" fill="none" xmlns="http://www.w3.org/2000/svg">
<g clip-path="url(#clip0_1_113)">
<path d="M46.5 6.9205C44.5848 8.27146 42.4642 9.30472 40.22 9.9805C39.0155 8.59552 37.4147 7.61389 35.6341 7.16835C33.8535 6.72282 31.979 6.83489 30.2642 7.48941C28.5493 8.14392 27.0769 9.3093 26.046 10.8279C25.015 12.3466 24.4754 14.1452 24.5 15.9805V17.9805C20.9853 18.0716 17.5025 17.2921 14.362 15.7114C11.2215 14.1307 8.52063 11.7978 6.5 8.9205C6.5 8.9205 -1.5 26.9205 16.5 34.9205C12.3811 37.7164 7.47431 39.1184 2.5 38.9205C20.5 48.9205 42.5 38.9205 42.5 15.9205C42.4982 15.3634 42.4446 14.8077 42.34 14.2605C44.3812 12.2475 45.8217 9.70593 46.5 6.9205Z" stroke="#00505F" stroke-width="4" stroke-linecap="round" stroke-linejoin="round"/>
</g>
<defs>
<clipPath id="clip0_1_113">
<rect width="48" height="48" fill="white" transform="translate(0.5 0.920898)"/>
</clipPath>
</defs>
</svg>
